HIERARCHY
ROOT Hips
{
  OFFSET 179.979 97.3047 303.174
  CHANNELS 6 Xposition Yposition Zposition Zrotation Xrotation Yrotation
  JOINT Spine
  {
    OFFSET 0.000859786 9.92346 -1.22733
    CHANNELS 3 Zrotation Xrotation Yrotation
    JOINT Spine1
    {
      OFFSET 0 11.732 0
      CHANNELS 3 Zrotation Xrotation Yrotation
      JOINT Spine2
      {
        OFFSET 0 13.4588 0
        CHANNELS 3 Zrotation Xrotation Yrotation
        JOINT Neck
        {
          OFFSET 2.54812e-05 15.0278 0.877907
          CHANNELS 3 Zrotation Xrotation Yrotation
          JOINT Head
          {
            OFFSET 0 10.3218 3.14243
            CHANNELS 3 Zrotation Xrotation Yrotation
            End Site
            {
              OFFSET 0 0 0
            }
          }
        }
        JOINT LeftShoulder
        {
          OFFSET 6.10582 9.10629 0.757062
          CHANNELS 3 Zrotation Xrotation Yrotation
          JOINT LeftArm
          {
            OFFSET 0 12.9223 0
            CHANNELS 3 Zrotation Xrotation Yrotation
            JOINT LeftForeArm
            {
              OFFSET 0 27.4047 0
              CHANNELS 3 Zrotation Xrotation Yrotation
              JOINT LeftHand
              {
                OFFSET -1.28204e-05 27.6145 0
                CHANNELS 3 Zrotation Xrotation Yrotation
                End Site
                {
                  OFFSET 0 0 0
                }
              }
            }
          }
        }
        JOINT RightShoulder
        {
          OFFSET -6.1057 9.10638 0.757076
          CHANNELS 3 Zrotation Xrotation Yrotation
          JOINT RightArm
          {
            OFFSET 0 12.9223 0
            CHANNELS 3 Zrotation Xrotation Yrotation
            JOINT RightForeArm
            {
              OFFSET 0 27.4047 0
              CHANNELS 3 Zrotation Xrotation Yrotation
              JOINT RightHand
              {
                OFFSET 1.28428e-05 27.6145 1.44975e-05
                CHANNELS 3 Zrotation Xrotation Yrotation
                End Site
                {
                  OFFSET 0 0 0
                }
              }
            }
          }
        }
      }
    }
  }
  JOINT LeftUpLeg
  {
    OFFSET 9.12387 -6.65719 -0.0554031
    CHANNELS 3 Zrotation Xrotation Yrotation
    JOINT LeftLeg
    {
      OFFSET 0 40.5994 0
      CHANNELS 3 Zrotation Xrotation Yrotation
      JOINT LeftFoot
      {
        OFFSET 0 42.099 0
        CHANNELS 3 Zrotation Xrotation Yrotation
        JOINT LeftToeBase
        {
          OFFSET 0 15.7216 0
          CHANNELS 3 Zrotation Xrotation Yrotation
          End Site
          {
            OFFSET 0 0 0
          }
        }
      }
    }
  }
  JOINT RightUpLeg
  {
    OFFSET -9.12503 -6.6556 -0.0553527
    CHANNELS 3 Zrotation Xrotation Yrotation
    JOINT RightLeg
    {
      OFFSET 0 40.5994 0
      CHANNELS 3 Zrotation Xrotation Yrotation
      JOINT RightFoot
      {
        OFFSET 0 42.099 0
        CHANNELS 3 Zrotation Xrotation Yrotation
        JOINT RightToeBase
        {
          OFFSET 0 15.7216 0
          CHANNELS 3 Zrotation Xrotation Yrotation
          End Site
          {
            OFFSET 0 0 0
          }
        }
      }
    }
  }
}
MOTION
Frames:	12
Frame Time:	0.0333333
-205.139 45.9337 -183.422 -5.4948 -49.0556 151.344 1.01179 2.16356 1.44508 1.86428 18.2945 2.52382 1.54492 24.8823 2.64278 -21.3382 14.5535 -23.4844 29.0981 -29.2204 -32.2965 -84.7454 -5.11203 90.6493 44.5724 -9.21644 -0.425262 20.7719 -17.0355 -0.811208 -23.5017 -30.3621 -15.3032 85.5005 8.98663 -91.3927 -73.0934 0.295501 29.8937 -43.9232 -13.1779 0.88455 22.6614 -62.541 13.6762 -45.059 39.1943 -140.935 175.213 -30.4609 176.143 19.702 77.2251 -9.96394 -0.965258 26.367 -3.60229 62.9228 45.7981 134.49 -173.453 -46.7603 -178.535 141.873 81.4261 -120.896 0.963515 26.3682 3.55538 
-204.679 45.7717 -181.257 -5.70983 -47.3778 152.509 1.07289 2.36018 1.54389 1.97229 18.6903 2.69776 1.62974 25.2771 2.82751 -20.6042 14.7152 -24.4254 28.146 -29.4667 -32.9885 -85.8379 -5.25257 90.7136 47.8053 -8.26255 -4.74282 26.7714 -21.1597 -1.00502 -22.0895 -33.3347 -10.0484 85.1919 8.80755 -91.313 -72.8492 -1.63143 30.1514 -41.9944 -13.2759 0.881773 23.9741 -61.2432 14.6019 -44.4604 38.3271 -141.934 175.223 -30.434 176.423 19.3301 77.5938 -9.55292 -0.965258 26.367 -3.60229 61.8343 44.2506 136.57 -173.432 -45.3053 -177.598 149.483 81.7926 -130.523 0.963515 26.3682 3.55538 
-204.411 45.5365 -179.257 -5.87633 -45.3199 153.53 1.17115 2.59639 1.72483 2.14264 19.1669 3.02309 1.75712 25.7518 3.17198 -19.7757 14.8893 -25.5371 26.8764 -29.3687 -33.9112 -86.819 -5.73521 90.7484 52.364 -5.72636 -8.11277 35.1927 -23.9811 -1.10459 -12.5755 -41.6842 0.811062 84.9021 8.49911 -91.2325 -72.5173 -3.30486 30.8386 -39.4942 -13.2715 0.868885 24.1594 -59.5861 14.7057 -44.2696 37.9299 -143.194 175.248 -30.3032 176.132 21.6105 77.7385 -11.1906 -0.965258 26.367 -3.60229 61.0531 42.9336 138.253 -173.435 -43.9825 -176.317 160.088 81.9419 -143.306 0.963515 26.3682 3.55538 
-204.261 45.3787 -177.424 -6.00985 -43.284 154.174 1.30983 2.81117 2.00657 2.37879 19.604 3.53715 1.92588 26.1854 3.71508 -19.3273 15.5493 -26.4963 26.2451 -29.6179 -34.8404 -86.9817 -6.39008 90.7241 57.5431 -2.55729 -8.54385 44.3579 -24.6022 -1.03094 -0.559157 -45.1068 13.4458 84.7219 8.74301 -91.2023 -71.2575 -4.97426 30.9616 -36.8295 -13.2141 0.851131 24.707 -57.5496 15.5513 -44.4282 37.7924 -144.043 175.208 -30.2603 175.798 24.0663 78.1097 -13.1704 -0.965258 26.367 -3.60229 60.3002 42.065 139.857 -173.411 -43.0638 -175.132 169.293 82.0124 -154.671 0.963515 26.3682 3.55538 
-204.234 45.2999 -175.759 -6.39537 -41.781 154.433 1.50805 2.87785 2.35268 2.72984 19.7486 4.15828 2.19664 26.3249 4.36884 -19.1982 15.8458 -27.5276 25.5165 -29.6358 -35.9458 -87.1622 -6.73314 90.7186 63.1261 0.0028227 -6.43925 51.9255 -23.0892 -0.823794 5.08722 -44.6895 18.3441 84.4082 8.98505 -91.1411 -69.6517 -6.3389 30.7652 -34.1024 -12.86 0.820107 24.9543 -55.0349 16.8556 -44.6273 37.6982 -145.074 175.191 -30.3902 175.387 27.5953 78.8522 -16.3383 -0.965258 26.367 -3.60229 59.1733 41.3245 141.906 -173.34 -42.5995 -173.93 177.578 82.043 -164.851 0.963515 26.3682 3.55538 
-204.27 45.2549 -174.216 -7.07544 -40.5667 154.378 1.66983 2.86846 2.63634 3.0172 19.7409 4.66841 2.41863 26.3124 4.90458 -19.201 15.6027 -28.3893 24.6018 -29.4088 -36.8645 -87.2269 -6.83897 90.7178 69.0008 1.54011 -1.1842 56.0594 -22.0626 -0.690384 2.62553 -41.6404 15.4908 84.2815 8.93525 -91.1098 -68.5206 -7.49475 30.5604 -31.8563 -12.3597 0.785216 24.1867 -51.7663 17.6281 -44.9087 37.5811 -146.452 175.095 -30.6376 174.735 31.9701 79.437 -20.406 -0.965258 26.367 -3.60229 57.758 40.6856 144.195 -173.276 -42.396 -172.675 -174.265 81.8251 -174.741 0.963515 26.3682 3.55538 
-204.367 45.198 -172.828 -7.84596 -39.5125 154.119 1.7673 2.8287 2.76112 3.19976 19.6668 4.88178 2.57422 26.2362 5.12783 -19.7701 15.1227 -28.6636 24.4333 -29.2402 -37.3043 -87.1436 -6.68877 90.7206 74.8395 2.96424 4.65601 56.4801 -22.0893 -0.689805 -2.66081 -38.9025 9.86298 84.4176 9.19838 -91.1521 -67.7553 -8.56274 29.9554 -29.9378 -11.9478 0.755079 22.5714 -47.6938 18.2198 -45.1254 37.4227 -147.706 175.025 -30.8964 174.198 35.1414 79.7651 -23.5441 -0.965258 26.367 -3.60229 56.3124 40.1306 146.504 -173.204 -42.3573 -171.366 -166.727 81.4484 176.141 0.963515 26.3682 3.55538 
-204.517 45.0905 -171.603 -8.51211 -38.4339 153.638 1.80012 2.82058 2.77329 3.26657 19.6519 4.89249 2.63974 26.2212 5.13891 -19.9149 14.5731 -28.827 24.0964 -29.4683 -37.3824 -87.1168 -6.37503 90.7372 80.6063 4.31426 8.8135 52.6441 -21.9773 -0.755421 -5.7699 -36.9571 7.94893 84.4892 9.19043 -91.1684 -67.5899 -8.97279 29.4456 -29.3694 -11.944 0.750127 20.8006 -42.5093 19.2705 -45.2905 37.2136 -147.996 175.065 -31.0515 174.464 34.3614 80.1054 -23.1433 -0.965258 26.367 -3.60229 55.0089 39.8573 148.527 -173.137 -42.4135 -170.244 -160.996 80.9397 168.967 0.963515 26.3682 3.55538 
-204.722 44.9382 -170.546 -8.96822 -37.3496 153.153 1.77341 2.84199 2.65672 3.23133 19.691 4.6653 2.63337 26.2625 4.90084 -19.1038 13.8851 -28.9659 23.2852 -29.8617 -37.026 -87.0407 -5.78892 90.7692 85.885 6.21928 9.68616 44.8041 -22.2301 -0.90151 -6.74912 -39.6501 7.55693 84.7879 9.02594 -91.2303 -67.8311 -8.85442 30.0336 -30.1209 -12.142 0.763601 18.3386 -36.2852 19.5749 -45.4916 37.0945 -148.372 175.034 -31.0831 174.356 34.8635 80.3055 -23.9339 -0.965258 26.367 -3.60229 53.9696 39.6962 150.089 -173.064 -42.499 -169.419 -157.049 80.5408 163.736 0.963515 26.3682 3.55538 
-204.954 44.7371 -169.627 -9.32312 -36.2049 152.429 1.65716 2.9104 2.47914 3.01853 19.8204 4.3516 2.46015 26.3949 4.57276 -17.7087 12.9908 -29.1897 21.912 -30.1303 -36.5535 -87.1753 -4.3431 90.879 88.8976 7.45262 8.2932 34.8465 -21.702 -0.988689 -8.28615 -47.7273 2.61232 85.3308 8.81652 -91.3452 -68.1747 -8.82944 30.2224 -31.0799 -12.5347 0.785548 16.012 -29.495 19.9289 -45.9623 36.9048 -148.489 174.998 -30.9573 174.045 36.6759 80.4819 -25.8686 -0.965258 26.367 -3.60229 53.0016 39.7802 151.38 -173.009 -42.6003 -168.917 -154.577 80.2301 160.053 0.963515 26.3682 3.55538 
-205.22 44.5073 -168.836 -9.51328 -35.0179 151.597 1.51126 3.0339 2.28165 2.74628 20.0593 4.0096 2.23074 26.6368 4.21583 -15.7546 12.1691 -29.5441 20.1233 -30.793 -36.021 -87.4939 -3.03805 91.0064 88.4449 7.63299 4.14729 30.1344 -18.9236 -0.883405 -4.7351 -57.0223 4.56421 85.8741 7.89752 -91.4199 -68.7855 -8.77239 30.0206 -32.0006 -12.6215 0.795954 13.7408 -23.8532 19.7846 -46.4852 36.6629 -148.406 174.981 -30.7241 173.624 38.6535 80.4763 -27.8917 -0.965258 26.367 -3.60229 52.3023 40.0912 152.44 -172.959 -42.7316 -168.516 -152.975 79.8151 157.283 0.963515 26.3682 3.55538 
-205.475 44.2322 -168.161 -9.7767 -33.9409 150.683 1.34955 3.10258 2.02841 2.45263 20.1881 3.5613 1.99429 26.7693 3.74568 -14.3673 11.9165 -29.5915 18.9515 -31.2805 -35.5187 -87.6443 -2.46516 91.0664 85.9984 7.89006 1.5246 30.1616 -17.5345 -0.818747 -1.55529 -60.1501 7.20302 86.276 7.28351 -91.4736 -68.4886 -8.07659 29.31 -33.4443 -12.7742 0.812201 10.3371 -20.5938 17.5661 -46.7322 36.4443 -148.214 174.993 -30.4092 173.465 38.8627 80.4742 -28.4229 -0.965258 26.367 -3.60229 51.7126 40.3649 153.478 -172.907 -42.846 -168.151 -152.267 79.1696 155.401 0.963515 26.3682 3.55538 
